<?xml version="1.0" encoding="UTF-8" standalone="no"?>
<!DOCTYPE svg PUBLIC "-//W3C//DTD SVG 1.1//EN"
"http://www.w3.org/Graphics/SVG/1.1/DTD/svg11.dtd">
<svg viewBox="0 0 935 1210" version="1.1" xmlns="http://www.w3.org/2000/svg" xmlns:xlink="http://www.w3.org/1999/xlink">
<defs>
<style type="text/css"><![CDATA[
.g4_4{
fill: #FFFFFF;
}
.g2_4{
fill: #BABABA;
}
.g3_4{
fill: #99999A;
}
.g1_4{
fill: none;
stroke: #808080;
stroke-width: 1.5277778;
stroke-linecap: butt;
stroke-linejoin: miter;
}
]]></style>
</defs>
<path d="M55,169.5l825,0" class="g1_4" />
<path d="M182,191.6c0,-1.8,1.5,-3.3,3.4,-3.3l38.6,0c1.9,0,3.4,1.5,3.4,3.3l0,39.1c0,1.8,-1.5,3.3,-3.4,3.3l-38.6,0c-1.9,0,-3.4,-1.5,-3.4,-3.3l0,-39.1Z" class="g2_4" />
<path d="M55,226.5l18.9,0l0,-6.2l-12,0l0,-23.7l-6.9,0l0,29.9Z" class="g3_4" />
<path fill-rule="evenodd" d="M83.5,226.5l0,-20.6l-6.8,0l0,20.6l6.8,0ZM80.1,203.1c2.4,0,3.9,-1.6,3.9,-3.5C83.9,197.5,82.5,196,80.1,196c-2.3,0,-3.8,1.5,-3.8,3.6c0,1.9,1.5,3.5,3.8,3.5Z" class="g3_4" />
<path fill-rule="evenodd" d="M86.7,226.5l6.9,0l0,-11.5c0,-0.6,0,-1.2,0.2,-1.6c0.5,-1.3,1.6,-2.5,3.5,-2.5c2.5,0,3.5,1.8,3.5,4.6l0,11l6.8,0l0,-11.8c0,-6.3,-3.4,-9.3,-7.9,-9.3c-3.7,0,-5.3,2.1,-6.2,3.5l0.1,0l0,-3l-6.9,0c0.1,2,0,20.6,0,20.6Z" class="g3_4" />
<path d="M117.3,196.6l-6.9,0l0,29.9l6.9,0l0,-6.6l1.7,-2.2l5.4,8.8l8.4,0l-9,-12.8l7.9,-8.7l-8.3,0c0,0,-5.6,7.8,-6.1,8.8l0,-17.2Z" class="g3_4" />
<path fill-rule="evenodd" d="M151.1,217.9c0.1,-0.5,0.3,-1.5,0.3,-2.6c0,-5.4,-2.7,-10.8,-9.9,-10.8c-7.6,0,-11.1,6,-11.1,11.5c0,6.8,4.3,11,11.8,11c2.9,0,5.7,-0.5,7.9,-1.4l-0.9,-4.5c-1.8,0.6,-3.7,0.9,-6,0.9c-3.3,0,-6,-1.3,-6.3,-4.1l14.2,0Zm-14.2,-4.6c0.2,-1.7,1.3,-4.3,4.3,-4.3c3.1,0,3.8,2.7,3.8,4.3l-8.1,0Z" class="g3_4" />
<path fill-rule="evenodd" d="M168.3,196.6l0,10.4l-0.1,0c-1,-1.5,-3.1,-2.4,-5.8,-2.4c-5.3,0,-10,4.2,-9.9,11.4c0,6.7,4.2,11,9.4,11c2.9,0,5.6,-1.2,6.9,-3.6l0.1,0l0.3,3.1l6.1,0c-0.1,-1.4,-0.2,-3.9,-0.2,-6.4l0,-23.5l-6.8,0Zm0,20.4c0,0.5,-0.1,1.1,-0.2,1.5c-0.4,1.9,-2,3.2,-4,3.2c-2.8,0,-4.7,-2.3,-4.7,-5.9c0,-3.4,1.6,-6.1,4.8,-6.1c2.1,0,3.6,1.5,4,3.3c0.1,0.4,0.1,0.8,0.1,1.2l0,2.8Z" class="g3_4" />
<path fill-rule="evenodd" d="M195.8,226.5l0,-20.6l-6.9,0l0,20.6l6.9,0Zm-3.5,-23.4c2.4,0,3.9,-1.6,3.9,-3.6c0,-2,-1.5,-3.5,-3.8,-3.5c-2.4,0,-3.9,1.5,-3.9,3.5c0,2,1.5,3.6,3.8,3.6Z" class="g4_4" />
<path fill-rule="evenodd" d="M199.6,226.5l6.8,0l0,-11.5c0,-0.6,0.1,-1.2,0.2,-1.7c0.5,-1.2,1.7,-2.5,3.6,-2.5c2.4,0,3.4,1.9,3.4,4.7l0,11l6.9,0l0,-11.8c0,-6.3,-3.4,-9.3,-7.9,-9.3c-3.7,0,-5.3,2.1,-6.2,3.5l0,-3l-6.8,0c0.1,1.9,0,20.6,0,20.6Z" class="g4_4" />
<path fill-rule="evenodd" d="M231.6,226l0.5,0l0,-1.2l0.4,0l0.8,1.2l0.5,0l-0.7,-1.2c0.3,-0.1,0.6,-0.3,0.6,-0.8c0,-0.6,-0.3,-0.9,-1,-0.9l-1.1,0l0,2.9Zm0.5,-2.4l0.4,0c0.4,0,0.7,0,0.7,0.4c0,0.4,-0.3,0.4,-0.7,0.4l-0.4,0l0,-0.8Zm-2,1c0,1.4,1.1,2.5,2.5,2.5c1.4,0,2.5,-1.1,2.5,-2.5c0,-1.4,-1.1,-2.5,-2.5,-2.5c-1.4,0,-2.5,1.1,-2.5,2.5Zm0.4,0c0,-1.2,0.9,-2.1,2.1,-2.1c1.1,0,2.1,0.9,2.1,2.1c0,1.1,-1,2.1,-2.1,2.1c-1.2,0,-2.1,-1,-2.1,-2.1Z" class="g3_4" />
</svg>